<svg width="124" height="124" viewBox="0 0 124 124" fill="none" xmlns="http://www.w3.org/2000/svg">
  <path d="M14.1667 123.5C10.4083 123.5 7.18983 122.163 4.51117 119.489C1.83705 116.81 0.5 113.592 0.5 109.833V14.1667C0.5 10.4083 1.83705 7.18983 4.51117 4.51117C7.18983 1.83705 10.4083 0.5 14.1667 0.5H109.833C113.592 0.5 116.81 1.83705 119.489 4.51117C122.163 7.18983 123.5 10.4083 123.5 14.1667V109.833C123.5 113.592 122.163 116.81 119.489 119.489C116.81 122.163 113.592 123.5 109.833 123.5H14.1667ZM14.1667 109.833H109.833V14.1667H14.1667V109.833ZM21 96.1667H103L77.375 62L56.875 89.3333L41.5 68.8333L21 96.1667ZM14.1667 109.833V14.1667V109.833Z" fill="#1D8CF4" fill-opacity="0.12"/>
</svg>
