<svg width="40" height="40" viewBox="0 0 40 40" fill="none" xmlns="http://www.w3.org/2000/svg">
  <circle cx="20" cy="20" r="20" fill="#61DAFB"/>
  <g clip-path="url(#clip0_351_3533)">
    <path d="M36.1824 19.9084C36.1824 17.7102 33.4296 15.627 29.2091 14.3352C30.1831 10.0335 29.7502 6.61112 27.8428 5.51541C27.4032 5.25839 26.8892 5.13665 26.3278 5.13665V6.64494C26.6389 6.64494 26.8892 6.70581 27.0988 6.82079C28.0187 7.34836 28.4177 9.35716 28.1066 11.9409C28.0322 12.5766 27.9105 13.2462 27.7617 13.9294C26.436 13.6047 24.9886 13.3545 23.4668 13.1921C22.5537 11.9409 21.6068 10.8046 20.6531 9.81032C22.858 7.76094 24.9277 6.63817 26.3345 6.63817V5.12988C24.4745 5.12988 22.0396 6.45556 19.5777 8.75519C17.1157 6.46908 14.6808 5.15694 12.8208 5.15694V6.66523C14.2209 6.66523 16.2973 7.78123 18.5023 9.81708C17.5553 10.8113 16.6084 11.9409 15.7089 13.1921C14.1803 13.3545 12.7329 13.6047 11.4072 13.9361C11.2516 13.2598 11.1367 12.6037 11.0555 11.9747C10.7376 9.39097 11.1299 7.38217 12.043 6.84785C12.2459 6.7261 12.5097 6.67199 12.8208 6.67199V5.1637C12.2527 5.1637 11.7386 5.28545 11.2922 5.54246C9.39164 6.63817 8.96553 10.0538 9.94625 14.342C5.73927 15.6406 3 17.717 3 19.9084C3 22.1066 5.7528 24.1898 9.97331 25.4817C8.99934 29.7833 9.43222 33.2057 11.3396 34.3014C11.7792 34.5585 12.2932 34.6802 12.8614 34.6802C14.7214 34.6802 17.1563 33.3545 19.6183 31.0549C22.0802 33.341 24.5151 34.6532 26.3751 34.6532C26.9433 34.6532 27.4573 34.5314 27.9037 34.2744C29.8043 33.1787 30.2304 29.763 29.2497 25.4749C33.4431 24.183 36.1824 22.0998 36.1824 19.9084ZM27.3761 15.3971C27.1259 16.2696 26.8148 17.1692 26.4631 18.0687C26.1857 17.5276 25.8949 16.9865 25.577 16.4454C25.2659 15.9044 24.9345 15.3768 24.6031 14.8628C25.5635 15.0048 26.4901 15.1806 27.3761 15.3971ZM24.2784 22.6004C23.7508 23.5134 23.2097 24.3792 22.6484 25.1841C21.6406 25.272 20.6193 25.3193 19.5912 25.3193C18.5699 25.3193 17.5486 25.272 16.5476 25.1908C15.9862 24.386 15.4383 23.527 14.9108 22.6206C14.3967 21.7346 13.93 20.835 13.5039 19.9287C13.9233 19.0224 14.3967 18.1161 14.904 17.23C15.4316 16.3169 15.9727 15.4512 16.534 14.6463C17.5418 14.5584 18.5631 14.511 19.5912 14.511C20.6125 14.511 21.6338 14.5584 22.6348 14.6396C23.1962 15.4444 23.7441 16.3034 24.2716 17.2097C24.7857 18.0958 25.2524 18.9953 25.6785 19.9017C25.2524 20.808 24.7857 21.7143 24.2784 22.6004ZM26.4631 21.7211C26.8283 22.6274 27.1394 23.5337 27.3964 24.413C26.5104 24.6294 25.577 24.8121 24.6098 24.9541C24.9412 24.4333 25.2727 23.899 25.5838 23.3511C25.8949 22.81 26.1857 22.2622 26.4631 21.7211ZM19.6047 28.9379C18.9757 28.2886 18.3467 27.5649 17.7244 26.7735C18.3332 26.8006 18.9554 26.8209 19.5844 26.8209C20.2202 26.8209 20.8492 26.8073 21.4647 26.7735C20.856 27.5649 20.227 28.2886 19.6047 28.9379ZM14.5726 24.9541C13.6121 24.8121 12.6855 24.6362 11.7995 24.4198C12.0497 23.5473 12.3609 22.6477 12.7126 21.7481C12.9899 22.2892 13.2807 22.8303 13.5986 23.3714C13.9165 23.9125 14.2412 24.4401 14.5726 24.9541ZM19.5709 10.879C20.1999 11.5283 20.8289 12.252 21.4512 13.0433C20.8425 13.0163 20.2202 12.996 19.5912 12.996C18.9554 12.996 18.3264 13.0095 17.7109 13.0433C18.3196 12.252 18.9487 11.5283 19.5709 10.879ZM14.5658 14.8628C14.2344 15.3836 13.903 15.9179 13.5919 16.4657C13.2807 17.0068 12.9899 17.5479 12.7126 18.089C12.3473 17.1827 12.0362 16.2764 11.7792 15.3971C12.6652 15.1874 13.5986 15.0048 14.5658 14.8628ZM8.44473 23.3308C6.0504 22.3095 4.50153 20.9703 4.50153 19.9084C4.50153 18.8465 6.0504 17.5006 8.44473 16.486C9.0264 16.2358 9.66218 16.0126 10.3183 15.8029C10.7038 17.1286 11.2111 18.5084 11.8401 19.922C11.2178 21.3288 10.7173 22.7018 10.3385 24.0207C9.66895 23.811 9.03316 23.5811 8.44473 23.3308ZM12.0836 32.9961C11.1637 32.4685 10.7647 30.4597 11.0758 27.876C11.1502 27.2402 11.2719 26.5706 11.4207 25.8875C12.7464 26.2121 14.1938 26.4624 15.7156 26.6247C16.6287 27.876 17.5756 29.0123 18.5293 30.0065C16.3244 32.0559 14.2547 33.1787 12.8479 33.1787C12.5435 33.1719 12.2865 33.111 12.0836 32.9961ZM28.1269 27.8422C28.4448 30.4259 28.0525 32.4347 27.1394 32.969C26.9365 33.0908 26.6727 33.1449 26.3616 33.1449C24.9615 33.1449 22.8851 32.0289 20.6801 29.993C21.6271 28.9988 22.574 27.8692 23.4735 26.618C25.0021 26.4556 26.4495 26.2054 27.7752 25.874C27.9308 26.5571 28.0525 27.2132 28.1269 27.8422ZM30.7309 23.3308C30.1492 23.5811 29.5135 23.8043 28.8574 24.014C28.4719 22.6883 27.9646 21.3085 27.3356 19.8949C27.9578 18.4881 28.4583 17.115 28.8371 15.7961C29.5067 16.0058 30.1425 16.2358 30.7377 16.486C33.132 17.5073 34.6809 18.8465 34.6809 19.9084C34.6741 20.9703 33.1252 22.3163 30.7309 23.3308Z" fill="white"/>
    <path d="M19.5846 22.9993C21.2917 22.9993 22.6756 21.6155 22.6756 19.9084C22.6756 18.2013 21.2917 16.8174 19.5846 16.8174C17.8775 16.8174 16.4937 18.2013 16.4937 19.9084C16.4937 21.6155 17.8775 22.9993 19.5846 22.9993Z" fill="white"/>
  </g>
  <defs>
    <clipPath id="clip0_351_3533">
      <rect width="33.1824" height="37.8104" fill="white" transform="translate(3 1)"/>
    </clipPath>
  </defs>
</svg>
